<?xml version="1.0" encoding="UTF-8" standalone="no"?>
<svg xmlns="http://www.w3.org/2000/svg" xmlns:xlink="http://www.w3.org/1999/xlink" width="1000" height="700" viewBox="0 0 1000 700">
  <style>
    .box { stroke: #6c757d; stroke-width: 2; rx: 8; fill: #212529; }
    .module { stroke: #0d6efd; stroke-width: 2; rx: 8; fill: #0d1117; }
    .component { stroke: #20c997; stroke-width: 2; rx: 6; fill: #0d1117; }
    .database { stroke: #fd7e14; stroke-width: 2; rx: 4; fill: #0d1117; }
    .device { stroke: #dc3545; stroke-width: 2; rx: 8; fill: #0d1117; }
    .arrow { stroke: #6c757d; stroke-width: 2; fill: none; marker-end: url(#arrowhead); }
    .text { font-family: 'Arial', sans-serif; fill: #f8f9fa; font-size: 14px; text-anchor: middle; }
    .subtext { font-family: 'Arial', sans-serif; fill: #adb5bd; font-size: 11px; text-anchor: middle; }
    .title { font-family: 'Arial', sans-serif; fill: #f8f9fa; font-size: 24px; text-anchor: middle; font-weight: bold; }
    .subtitle { font-family: 'Arial', sans-serif; fill: #adb5bd; font-size: 16px; text-anchor: middle; }
  </style>

  <defs>
    <marker id="arrowhead" markerWidth="10" markerHeight="7" refX="9" refY="3.5" orient="auto">
      <polygon points="0 0, 10 3.5, 0 7" fill="#6c757d" />
    </marker>
  </defs>

  <!-- Title -->
  <text x="500" y="30" class="title">Pet Tracker System Architecture</text>
  <text x="500" y="55" class="subtitle">Dual Protocol Support with Frontend and Backend Integration</text>

  <!-- Main Boxes -->
  <!-- Backend Flask Application -->
  <rect x="350" y="100" width="300" height="220" class="box" />
  <text x="500" y="125" class="text">Flask Backend Application</text>

  <!-- Frontend Vue Application -->
  <rect x="50" y="100" width="200" height="220" class="box" />
  <text x="150" y="125" class="text">Vue.js Frontend</text>

  <!-- Database -->
  <rect x="400" y="400" width="200" height="100" rx="10" ry="10" class="database" />
  <text x="500" y="450" class="text">PostgreSQL Database</text>

  <!-- Protocol Server -->
  <rect x="700" y="100" width="250" height="220" class="box" />
  <text x="825" y="125" class="text">Protocol Server (TCP)</text>

  <!-- Devices Box -->
  <rect x="700" y="400" width="250" height="220" class="box" />
  <text x="825" y="425" class="text">GPS Tracking Devices</text>

  <!-- Backend Components -->
  <rect x="375" y="150" width="100" height="40" class="module" />
  <text x="425" y="175" class="text">Auth Routes</text>

  <rect x="375" y="200" width="100" height="40" class="module" />
  <text x="425" y="225" class="text">Pet Routes</text>

  <rect x="375" y="250" width="100" height="40" class="module" />
  <text x="425" y="275" class="text">Device Routes</text>

  <rect x="525" y="150" width="100" height="40" class="module" />
  <text x="575" y="175" class="text">Location Routes</text>

  <rect x="525" y="200" width="100" height="40" class="module" />
  <text x="575" y="225" class="text">Location Service</text>

  <rect x="525" y="250" width="100" height="40" class="module" />
  <text x="575" y="275" class="text">Models (ORM)</text>

  <!-- Frontend Components -->
  <rect x="75" y="150" width="150" height="35" class="module" />
  <text x="150" y="172" class="text">Auth Components</text>

  <rect x="75" y="195" width="150" height="35" class="module" />
  <text x="150" y="217" class="text">Pet Management</text>

  <rect x="75" y="240" width="150" height="35" class="module" />
  <text x="150" y="262" class="text">Device Management</text>

  <rect x="75" y="285" width="150" height="35" class="module" />
  <text x="150" y="307" class="text">Location Tracking</text>

  <!-- Protocol Server Components -->
  <rect x="725" y="150" width="200" height="40" class="module" />
  <text x="825" y="175" class="text">Protocol 808 Parser</text>

  <rect x="725" y="200" width="200" height="40" class="module" />
  <text x="825" y="225" class="text">JT808 Parser</text>

  <rect x="725" y="250" width="200" height="40" class="module" />
  <text x="825" y="275" class="text">Socket Server</text>

  <!-- Device Types -->
  <rect x="725" y="450" width="200" height="35" class="device" />
  <text x="825" y="472" class="text">808 Protocol Devices</text>

  <rect x="725" y="495" width="200" height="35" class="device" />
  <text x="825" y="517" class="text">JT808 Protocol Devices</text>

  <!-- Testing Tools -->
  <rect x="725" y="540" width="200" height="35" class="component" />
  <text x="825" y="562" class="text">Device Simulator</text>
  <text x="825" y="578" class="subtext">Testing tool for both protocols</text>

  <!-- Database Models -->
  <rect x="415" y="510" width="75" height="30" class="component" />
  <text x="452" y="530" class="text">Users</text>

  <rect x="365" y="550" width="75" height="30" class="component" />
  <text x="402" y="570" class="text">Pets</text>

  <rect x="450" y="550" width="75" height="30" class="component" />
  <text x="487" y="570" class="text">Devices</text>

  <rect x="535" y="550" width="75" height="30" class="component" />
  <text x="573" y="570" class="text">Locations</text>

  <!-- Connections/Arrows -->
  <!-- Frontend to Backend -->
  <path d="M 250 210 L 340 210" class="arrow" />
  <text x="295" y="200" class="subtext">HTTP/REST API</text>

  <!-- Backend to Database -->
  <path d="M 500 320 L 500 390" class="arrow" />
  <text x="510" y="355" class="subtext">SQLAlchemy ORM</text>

  <!-- Protocol Server to Backend -->
  <path d="M 725 300 L 670 300 L 670 210 L 650 210" class="arrow" />
  <text x="680" y="185" class="subtext">Location Updates</text>

  <!-- Devices to Protocol Server -->
  <path d="M 825 400 L 825 330" class="arrow" />
  <text x="835" y="365" class="subtext">TCP Socket</text>

  <!-- Google OAuth -->
  <rect x="150" y="400" width="200" height="60" rx="8" ry="8" class="box" />
  <text x="250" y="430" class="text">Google OAuth</text>
  <text x="250" y="450" class="subtext">User Authentication</text>

  <!-- OAuth to Backend -->
  <path d="M 250 400 L 250 350 L 350 350" class="arrow" />

  <!-- Database structure connections -->
  <path d="M 452 510 L 402 540" class="arrow" stroke-width="1" />
  <path d="M 452 510 L 487 540" class="arrow" stroke-width="1" />
  <path d="M 487 550 L 535 550" class="arrow" stroke-width="1" />
  
  <!-- Legend -->
  <rect x="50" y="600" width="200" height="80" class="box" />
  <text x="150" y="620" class="text">Legend</text>
  
  <rect x="70" y="630" width="20" height="10" class="module" />
  <text x="150" y="638" class="subtext">Core Application Modules</text>
  
  <rect x="70" y="650" width="20" height="10" class="component" />
  <text x="150" y="658" class="subtext">Components/Endpoints</text>
  
  <rect x="70" y="670" width="20" height="10" class="device" />
  <text x="150" y="678" class="subtext">Physical/Virtual Devices</text>
</svg>